<svg xmlns="http://www.w3.org/2000/svg" viewBox="0 0 600 600" width="600" height="600"><defs><g id="outline"><path d="M180.0 74.00 L184.0 73.92 L188.0 73.69 L192.0 73.31 L196.0 72.79 L200.0 72.12 L204.0 71.33 L208.0 70.40 L212.0 69.37 L216.0 68.23 L220.0 67.00 L224.0 65.69 L228.0 64.33 L232.0 62.91 L236.0 61.46 L240.0 60.00 L244.0 58.54 L248.0 57.09 L252.0 55.67 L256.0 54.31 L260.0 53.00 L264.0 51.77 L268.0 50.63 L272.0 49.60 L276.0 48.67 L280.0 47.88 L284.0 47.21 L288.0 46.69 L292.0 46.31 L296.0 46.08 L300.0 46.00 L304.0 46.08 L308.0 46.31 L312.0 46.69 L316.0 47.21 L320.0 47.88 L324.0 48.67 L328.0 49.60 L332.0 50.63 L336.0 51.77 L340.0 53.00 L344.0 54.31 L348.0 55.67 L352.0 57.09 L356.0 58.54 L360.0 60.00 L364.0 61.46 L368.0 62.91 L372.0 64.33 L376.0 65.69 L380.0 67.00 L384.0 68.23 L388.0 69.37 L392.0 70.40 L396.0 71.33 L400.0 72.12 L404.0 72.79 L408.0 73.31 L412.0 73.69 L416.0 73.92 L420.0 74.00" fill="none" stroke="#cbb8ef" stroke-width="8.5" stroke-linecap="round" stroke-linejoin="round"/><path d="M180.0 46.00 L184.0 46.08 L188.0 46.31 L192.0 46.69 L196.0 47.21 L200.0 47.88 L204.0 48.67 L208.0 49.60 L212.0 50.63 L216.0 51.77 L220.0 53.00 L224.0 54.31 L228.0 55.67 L232.0 57.09 L236.0 58.54 L240.0 60.00 L244.0 61.46 L248.0 62.91 L252.0 64.33 L256.0 65.69 L260.0 67.00 L264.0 68.23 L268.0 69.37 L272.0 70.40 L276.0 71.33 L280.0 72.12 L284.0 72.79 L288.0 73.31 L292.0 73.69 L296.0 73.92 L300.0 74.00 L304.0 73.92 L308.0 73.69 L312.0 73.31 L316.0 72.79 L320.0 72.12 L324.0 71.33 L328.0 70.40 L332.0 69.37 L336.0 68.23 L340.0 67.00 L344.0 65.69 L348.0 64.33 L352.0 62.91 L356.0 61.46 L360.0 60.00 L364.0 58.54 L368.0 57.09 L372.0 55.67 L376.0 54.31 L380.0 53.00 L384.0 51.77 L388.0 50.63 L392.0 49.60 L396.0 48.67 L400.0 47.88 L404.0 47.21 L408.0 46.69 L412.0 46.31 L416.0 46.08 L420.0 46.00" fill="none" stroke="#cbb8ef" stroke-width="8.5" stroke-linecap="round" stroke-linejoin="round"/><path d="M180 46 C120 46 58 16 36 36 C16 58 46 120 46 180" fill="none" stroke="#cbb8ef" stroke-width="8.5" stroke-linecap="round" stroke-linejoin="round"/><path d="M180 74 C118 74 104 136 138 136 C168 136 166 96 134 92 C110 89 88 54 70 70 C54 88 89 110 92 134 C96 166 136 168 136 138 C136 104 74 118 74 180" fill="none" stroke="#cbb8ef" stroke-width="8.5" stroke-linecap="round" stroke-linejoin="round"/></g><g id="fill"><path d="M180.0 74.00 L184.0 73.92 L188.0 73.69 L192.0 73.31 L196.0 72.79 L200.0 72.12 L204.0 71.33 L208.0 70.40 L212.0 69.37 L216.0 68.23 L220.0 67.00 L224.0 65.69 L228.0 64.33 L232.0 62.91 L236.0 61.46 L240.0 60.00 L244.0 58.54 L248.0 57.09 L252.0 55.67 L256.0 54.31 L260.0 53.00 L264.0 51.77 L268.0 50.63 L272.0 49.60 L276.0 48.67 L280.0 47.88 L284.0 47.21 L288.0 46.69 L292.0 46.31 L296.0 46.08 L300.0 46.00 L304.0 46.08 L308.0 46.31 L312.0 46.69 L316.0 47.21 L320.0 47.88 L324.0 48.67 L328.0 49.60 L332.0 50.63 L336.0 51.77 L340.0 53.00 L344.0 54.31 L348.0 55.67 L352.0 57.09 L356.0 58.54 L360.0 60.00 L364.0 61.46 L368.0 62.91 L372.0 64.33 L376.0 65.69 L380.0 67.00 L384.0 68.23 L388.0 69.37 L392.0 70.40 L396.0 71.33 L400.0 72.12 L404.0 72.79 L408.0 73.31 L412.0 73.69 L416.0 73.92 L420.0 74.00" fill="none" stroke="#23305e" stroke-width="4.9" stroke-linecap="round" stroke-linejoin="round"/><path d="M180.0 46.00 L184.0 46.08 L188.0 46.31 L192.0 46.69 L196.0 47.21 L200.0 47.88 L204.0 48.67 L208.0 49.60 L212.0 50.63 L216.0 51.77 L220.0 53.00 L224.0 54.31 L228.0 55.67 L232.0 57.09 L236.0 58.54 L240.0 60.00 L244.0 61.46 L248.0 62.91 L252.0 64.33 L256.0 65.69 L260.0 67.00 L264.0 68.23 L268.0 69.37 L272.0 70.40 L276.0 71.33 L280.0 72.12 L284.0 72.79 L288.0 73.31 L292.0 73.69 L296.0 73.92 L300.0 74.00 L304.0 73.92 L308.0 73.69 L312.0 73.31 L316.0 72.79 L320.0 72.12 L324.0 71.33 L328.0 70.40 L332.0 69.37 L336.0 68.23 L340.0 67.00 L344.0 65.69 L348.0 64.33 L352.0 62.91 L356.0 61.46 L360.0 60.00 L364.0 58.54 L368.0 57.09 L372.0 55.67 L376.0 54.31 L380.0 53.00 L384.0 51.77 L388.0 50.63 L392.0 49.60 L396.0 48.67 L400.0 47.88 L404.0 47.21 L408.0 46.69 L412.0 46.31 L416.0 46.08 L420.0 46.00" fill="none" stroke="#23305e" stroke-width="4.9" stroke-linecap="round" stroke-linejoin="round"/><path d="M180 46 C120 46 58 16 36 36 C16 58 46 120 46 180" fill="none" stroke="#23305e" stroke-width="4.9" stroke-linecap="round" stroke-linejoin="round"/><path d="M180 74 C118 74 104 136 138 136 C168 136 166 96 134 92 C110 89 88 54 70 70 C54 88 89 110 92 134 C96 166 136 168 136 138 C136 104 74 118 74 180" fill="none" stroke="#23305e" stroke-width="4.9" stroke-linecap="round" stroke-linejoin="round"/></g><g id="over"><path d="M212.0 69.37 L214.0 68.81 L216.0 68.23 L218.0 67.62 L220.0 67.00 L222.0 66.36 L224.0 65.69 L226.0 65.02 L228.0 64.33 L230.0 63.62 L232.0 62.91 L234.0 62.19 L236.0 61.46 L238.0 60.73 L240.0 60.00 L242.0 59.27 L244.0 58.54 L246.0 57.81 L248.0 57.09 L250.0 56.38 L252.0 55.67 L254.0 54.98 L256.0 54.31 L258.0 53.64 L260.0 53.00 L262.0 52.38 L264.0 51.77 L266.0 51.19 L268.0 50.63" fill="none" stroke="#cbb8ef" stroke-width="8.5" stroke-linecap="butt" stroke-linejoin="round"/><path d="M332.0 69.37 L334.0 68.81 L336.0 68.23 L338.0 67.62 L340.0 67.00 L342.0 66.36 L344.0 65.69 L346.0 65.02 L348.0 64.33 L350.0 63.62 L352.0 62.91 L354.0 62.19 L356.0 61.46 L358.0 60.73 L360.0 60.00 L362.0 59.27 L364.0 58.54 L366.0 57.81 L368.0 57.09 L370.0 56.38 L372.0 55.67 L374.0 54.98 L376.0 54.31 L378.0 53.64 L380.0 53.00 L382.0 52.38 L384.0 51.77 L386.0 51.19 L388.0 50.63" fill="none" stroke="#cbb8ef" stroke-width="8.5" stroke-linecap="butt" stroke-linejoin="round"/><path d="M143.7 83.0 L142.5 83.7 L141.4 84.4 L140.3 85.1 L139.2 85.9 L138.2 86.6 L137.2 87.4 L136.2 88.2 L135.2 89.0 L134.3 89.8 L133.4 90.6 L132.5 91.5 L131.7 92.3 L130.9 93.2 L130.1 94.1 L129.4 94.9 L128.6 95.8 L127.9 96.7 L127.3 97.6 L126.6 98.5 L126.0 99.4 L125.5 100.4 L124.9 101.3 L124.4 102.2" fill="none" stroke="#cbb8ef" stroke-width="8.5" stroke-linecap="butt" stroke-linejoin="round"/><path d="M123.4 129.6 L123.8 130.1 L124.3 130.7 L124.8 131.2 L125.4 131.7 L125.9 132.2 L126.5 132.7 L127.2 133.1 L127.8 133.5 L128.5 133.9 L129.2 134.3 L130.0 134.6 L130.8 134.9 L131.6 135.1 L132.4 135.4 L133.3 135.6 L134.2 135.7 L135.1 135.8 L136.0 135.9 L137.0 136.0 L138.0 136.0 L138.9 136.0 L139.8 136.0 L140.6 135.9 L141.4 135.8 L142.3 135.7 L143.1 135.6 L143.8 135.4 L144.6 135.3 L145.3 135.1 L146.0 134.9 L146.7 134.6 L147.4 134.4 L148.1 134.1" fill="none" stroke="#cbb8ef" stroke-width="8.5" stroke-linecap="butt" stroke-linejoin="round"/><path d="M86.6 119.2 L87.0 119.9 L87.4 120.6 L87.8 121.2 L88.1 121.9 L88.4 122.6 L88.8 123.3 L89.1 124.0 L89.4 124.7 L89.7 125.4 L90.0 126.2 L90.2 126.9 L90.5 127.6 L90.7 128.3 L90.9 129.0 L91.1 129.7 L91.3 130.4 L91.5 131.1 L91.6 131.8 L91.8 132.6 L91.9 133.3 L92.0 134.0 L92.1 135.0 L92.3 135.9 L92.5 136.8 L92.6 137.7 L92.9 138.6 L93.1 139.4 L93.3 140.3 L93.6 141.1 L93.9 141.9 L94.2 142.7 L94.5 143.5 L94.9 144.2 L95.2 145.0" fill="none" stroke="#cbb8ef" stroke-width="8.5" stroke-linecap="butt" stroke-linejoin="round"/><path d="M131.7 125.4 L131.2 124.8 L130.7 124.3 L130.1 123.8 L129.6 123.4 L128.9 122.9 L128.3 122.5 L127.7 122.2 L127.0 121.8 L126.3 121.5 L125.6 121.2 L124.9 121.0 L124.1 120.7 L123.4 120.5 L122.6 120.4 L121.8 120.2 L121.0 120.1 L120.2 120.0 L119.4 120.0 L118.5 119.9 L117.7 119.9 L116.8 120.0 L115.9 120.0 L115.1 120.1 L114.2 120.2 L113.3 120.4 L112.4 120.6 L111.5 120.8 L110.6 121.0 L109.6 121.3 L108.7 121.6 L107.8 121.9 L106.9 122.2" fill="none" stroke="#cbb8ef" stroke-width="8.5" stroke-linecap="butt" stroke-linejoin="round"/><path d="M212.0 69.37 L214.0 68.81 L216.0 68.23 L218.0 67.62 L220.0 67.00 L222.0 66.36 L224.0 65.69 L226.0 65.02 L228.0 64.33 L230.0 63.62 L232.0 62.91 L234.0 62.19 L236.0 61.46 L238.0 60.73 L240.0 60.00 L242.0 59.27 L244.0 58.54 L246.0 57.81 L248.0 57.09 L250.0 56.38 L252.0 55.67 L254.0 54.98 L256.0 54.31 L258.0 53.64 L260.0 53.00 L262.0 52.38 L264.0 51.77 L266.0 51.19 L268.0 50.63" fill="none" stroke="#23305e" stroke-width="4.9" stroke-linecap="butt" stroke-linejoin="round"/><path d="M332.0 69.37 L334.0 68.81 L336.0 68.23 L338.0 67.62 L340.0 67.00 L342.0 66.36 L344.0 65.69 L346.0 65.02 L348.0 64.33 L350.0 63.62 L352.0 62.91 L354.0 62.19 L356.0 61.46 L358.0 60.73 L360.0 60.00 L362.0 59.27 L364.0 58.54 L366.0 57.81 L368.0 57.09 L370.0 56.38 L372.0 55.67 L374.0 54.98 L376.0 54.31 L378.0 53.64 L380.0 53.00 L382.0 52.38 L384.0 51.77 L386.0 51.19 L388.0 50.63" fill="none" stroke="#23305e" stroke-width="4.9" stroke-linecap="butt" stroke-linejoin="round"/><path d="M143.7 83.0 L142.5 83.7 L141.4 84.4 L140.3 85.1 L139.2 85.9 L138.2 86.6 L137.2 87.4 L136.2 88.2 L135.2 89.0 L134.3 89.8 L133.4 90.6 L132.5 91.5 L131.7 92.3 L130.9 93.2 L130.1 94.1 L129.4 94.9 L128.6 95.8 L127.9 96.7 L127.3 97.6 L126.6 98.5 L126.0 99.4 L125.5 100.4 L124.9 101.3 L124.4 102.2" fill="none" stroke="#23305e" stroke-width="4.9" stroke-linecap="butt" stroke-linejoin="round"/><path d="M123.4 129.6 L123.8 130.1 L124.3 130.7 L124.8 131.2 L125.4 131.7 L125.9 132.2 L126.5 132.7 L127.2 133.1 L127.8 133.5 L128.5 133.9 L129.2 134.3 L130.0 134.6 L130.8 134.9 L131.6 135.1 L132.4 135.4 L133.3 135.6 L134.2 135.7 L135.1 135.8 L136.0 135.9 L137.0 136.0 L138.0 136.0 L138.9 136.0 L139.8 136.0 L140.6 135.9 L141.4 135.8 L142.3 135.7 L143.1 135.6 L143.8 135.4 L144.6 135.3 L145.3 135.1 L146.0 134.9 L146.7 134.6 L147.4 134.4 L148.1 134.1" fill="none" stroke="#23305e" stroke-width="4.9" stroke-linecap="butt" stroke-linejoin="round"/><path d="M86.6 119.2 L87.0 119.9 L87.4 120.6 L87.8 121.2 L88.1 121.9 L88.4 122.6 L88.8 123.3 L89.1 124.0 L89.4 124.7 L89.7 125.4 L90.0 126.2 L90.2 126.9 L90.5 127.6 L90.7 128.3 L90.9 129.0 L91.1 129.7 L91.3 130.4 L91.5 131.1 L91.6 131.8 L91.8 132.6 L91.9 133.3 L92.0 134.0 L92.1 135.0 L92.3 135.9 L92.5 136.8 L92.6 137.7 L92.9 138.6 L93.1 139.4 L93.3 140.3 L93.6 141.1 L93.9 141.9 L94.2 142.7 L94.5 143.5 L94.9 144.2 L95.2 145.0" fill="none" stroke="#23305e" stroke-width="4.9" stroke-linecap="butt" stroke-linejoin="round"/><path d="M131.7 125.4 L131.2 124.8 L130.7 124.3 L130.1 123.8 L129.6 123.4 L128.9 122.9 L128.3 122.5 L127.7 122.2 L127.0 121.8 L126.3 121.5 L125.6 121.2 L124.9 121.0 L124.1 120.7 L123.4 120.5 L122.6 120.4 L121.8 120.2 L121.0 120.1 L120.2 120.0 L119.4 120.0 L118.5 119.9 L117.7 119.9 L116.8 120.0 L115.9 120.0 L115.1 120.1 L114.2 120.2 L113.3 120.4 L112.4 120.6 L111.5 120.8 L110.6 121.0 L109.6 121.3 L108.7 121.6 L107.8 121.9 L106.9 122.2" fill="none" stroke="#23305e" stroke-width="4.9" stroke-linecap="butt" stroke-linejoin="round"/></g></defs><rect x="20" y="20" width="560" height="560" rx="6" fill="none" stroke="#b6a3e0" stroke-width="1.6"/><rect x="27" y="27" width="546" height="546" rx="4" fill="none" stroke="#b6a3e0" stroke-width=".8" opacity=".8"/><use href="#outline" transform="rotate(0 300 300)"/><use href="#outline" transform="rotate(90 300 300)"/><use href="#outline" transform="rotate(180 300 300)"/><use href="#outline" transform="rotate(270 300 300)"/><use href="#fill" transform="rotate(0 300 300)"/><use href="#fill" transform="rotate(90 300 300)"/><use href="#fill" transform="rotate(180 300 300)"/><use href="#fill" transform="rotate(270 300 300)"/><use href="#over" transform="rotate(0 300 300)"/><use href="#over" transform="rotate(90 300 300)"/><use href="#over" transform="rotate(180 300 300)"/><use href="#over" transform="rotate(270 300 300)"/><g id="spray"><path d="M584 172 C 578 124 554 86 516 60 C 494 45 470 36 446 38" fill="none" stroke="#8fbb86" stroke-width="2.3" stroke-linecap="round"/><path d="M552 94 C 532 98 514 112 500 130" fill="none" stroke="#8fbb86" stroke-width="1.6" stroke-linecap="round"/><path d="M570 128 C 584 118 592 100 594 84" fill="none" stroke="#8fbb86" stroke-width="1.5" stroke-linecap="round"/><path d="M516 60 C 518 42 526 28 538 20" fill="none" stroke="#8fbb86" stroke-width="1.5" stroke-linecap="round"/><path d="M486 44 C 478 58 464 66 450 68" fill="none" stroke="#8fbb86" stroke-width="1.3" stroke-linecap="round"/><g transform="translate(578 146) rotate(-28) scale(0.95)"><path d="M0 0 C 5 -8 5 -20 0 -30 C -5 -20 -5 -8 0 0 Z" fill="#86b37b" stroke="#5e8a56" stroke-width="1"/><path d="M0 -2 L0 -26" stroke="#5e8a56" stroke-width=".7"/></g><g transform="translate(566 112) rotate(42) scale(0.8)"><path d="M0 0 C 5 -8 5 -20 0 -30 C -5 -20 -5 -8 0 0 Z" fill="#86b37b" stroke="#5e8a56" stroke-width="1"/><path d="M0 -2 L0 -26" stroke="#5e8a56" stroke-width=".7"/></g><g transform="translate(532 74) rotate(-72) scale(0.75)"><path d="M0 0 C 5 -8 5 -20 0 -30 C -5 -20 -5 -8 0 0 Z" fill="#86b37b" stroke="#5e8a56" stroke-width="1"/><path d="M0 -2 L0 -26" stroke="#5e8a56" stroke-width=".7"/></g><g transform="translate(486 42) rotate(64) scale(0.62)"><path d="M0 0 C 5 -8 5 -20 0 -30 C -5 -20 -5 -8 0 0 Z" fill="#86b37b" stroke="#5e8a56" stroke-width="1"/><path d="M0 -2 L0 -26" stroke="#5e8a56" stroke-width=".7"/></g><g transform="translate(506 118) rotate(-120) scale(0.6)"><path d="M0 0 C 5 -8 5 -20 0 -30 C -5 -20 -5 -8 0 0 Z" fill="#86b37b" stroke="#5e8a56" stroke-width="1"/><path d="M0 -2 L0 -26" stroke="#5e8a56" stroke-width=".7"/></g><g transform="translate(594 84) rotate(22) scale(0.95)"><path d="M0 0 C 4 -4 5 -12 0 -18 C -5 -12 -4 -4 0 0 Z" fill="#b99be6" stroke="#9d80d6" stroke-width="1"/><path d="M0 0 L-4 -6 M0 0 L4 -6 M0 0 L0 -7" stroke="#8fbb86" stroke-width="1.1" stroke-linecap="round"/></g><g transform="translate(538 20) rotate(32) scale(0.85)"><path d="M0 0 C 4 -4 5 -12 0 -18 C -5 -12 -4 -4 0 0 Z" fill="#b99be6" stroke="#9d80d6" stroke-width="1"/><path d="M0 0 L-4 -6 M0 0 L4 -6 M0 0 L0 -7" stroke="#8fbb86" stroke-width="1.1" stroke-linecap="round"/></g><g transform="translate(450 68) rotate(-110) scale(0.75)"><path d="M0 0 C 4 -4 5 -12 0 -18 C -5 -12 -4 -4 0 0 Z" fill="#b99be6" stroke="#9d80d6" stroke-width="1"/><path d="M0 0 L-4 -6 M0 0 L4 -6 M0 0 L0 -7" stroke="#8fbb86" stroke-width="1.1" stroke-linecap="round"/></g><g transform="translate(446 38) rotate(-18) scale(1 1.0)"><path d="M0 0 C 6.4 -6.9, 6.9 -16.6, 0 -23 C -6.9 -16.6, -6.4 -6.9, 0 0 Z" transform="rotate(0)" fill="#c9b0f2" stroke="#9d80d6" stroke-width="1.1" stroke-linejoin="round"/><path d="M0 -4.1 L0 -16.6" transform="rotate(0)" stroke="#b49ae6" stroke-width=".8" stroke-linecap="round"/><path d="M0 0 C 6.4 -6.9, 6.9 -16.6, 0 -23 C -6.9 -16.6, -6.4 -6.9, 0 0 Z" transform="rotate(72)" fill="#c9b0f2" stroke="#9d80d6" stroke-width="1.1" stroke-linejoin="round"/><path d="M0 -4.1 L0 -16.6" transform="rotate(72)" stroke="#b49ae6" stroke-width=".8" stroke-linecap="round"/><path d="M0 0 C 6.4 -6.9, 6.9 -16.6, 0 -23 C -6.9 -16.6, -6.4 -6.9, 0 0 Z" transform="rotate(144)" fill="#c9b0f2" stroke="#9d80d6" stroke-width="1.1" stroke-linejoin="round"/><path d="M0 -4.1 L0 -16.6" transform="rotate(144)" stroke="#b49ae6" stroke-width=".8" stroke-linecap="round"/><path d="M0 0 C 6.4 -6.9, 6.9 -16.6, 0 -23 C -6.9 -16.6, -6.4 -6.9, 0 0 Z" transform="rotate(216)" fill="#c9b0f2" stroke="#9d80d6" stroke-width="1.1" stroke-linejoin="round"/><path d="M0 -4.1 L0 -16.6" transform="rotate(216)" stroke="#b49ae6" stroke-width=".8" stroke-linecap="round"/><path d="M0 0 C 6.4 -6.9, 6.9 -16.6, 0 -23 C -6.9 -16.6, -6.4 -6.9, 0 0 Z" transform="rotate(288)" fill="#c9b0f2" stroke="#9d80d6" stroke-width="1.1" stroke-linejoin="round"/><path d="M0 -4.1 L0 -16.6" transform="rotate(288)" stroke="#b49ae6" stroke-width=".8" stroke-linecap="round"/><circle r="6.9" fill="#f3edfd"/><path d="M0 0 L0 -7.8" transform="rotate(20)" stroke="#ffffff" stroke-width="1.2" stroke-linecap="round"/><path d="M0 0 L0 -7.8" transform="rotate(140)" stroke="#ffffff" stroke-width="1.2" stroke-linecap="round"/><path d="M0 0 L0 -7.8" transform="rotate(260)" stroke="#ffffff" stroke-width="1.2" stroke-linecap="round"/><circle r="2.1" fill="#9d80d6"/></g><g transform="translate(500 132) rotate(14) scale(1 0.92)"><path d="M0 0 C 5.6 -6.0, 6.0 -14.4, 0 -20 C -6.0 -14.4, -5.6 -6.0, 0 0 Z" transform="rotate(0)" fill="#c9b0f2" stroke="#9d80d6" stroke-width="1.1" stroke-linejoin="round"/><path d="M0 -3.6 L0 -14.4" transform="rotate(0)" stroke="#b49ae6" stroke-width=".8" stroke-linecap="round"/><path d="M0 0 C 5.6 -6.0, 6.0 -14.4, 0 -20 C -6.0 -14.4, -5.6 -6.0, 0 0 Z" transform="rotate(72)" fill="#c9b0f2" stroke="#9d80d6" stroke-width="1.1" stroke-linejoin="round"/><path d="M0 -3.6 L0 -14.4" transform="rotate(72)" stroke="#b49ae6" stroke-width=".8" stroke-linecap="round"/><path d="M0 0 C 5.6 -6.0, 6.0 -14.4, 0 -20 C -6.0 -14.4, -5.6 -6.0, 0 0 Z" transform="rotate(144)" fill="#c9b0f2" stroke="#9d80d6" stroke-width="1.1" stroke-linejoin="round"/><path d="M0 -3.6 L0 -14.4" transform="rotate(144)" stroke="#b49ae6" stroke-width=".8" stroke-linecap="round"/><path d="M0 0 C 5.6 -6.0, 6.0 -14.4, 0 -20 C -6.0 -14.4, -5.6 -6.0, 0 0 Z" transform="rotate(216)" fill="#c9b0f2" stroke="#9d80d6" stroke-width="1.1" stroke-linejoin="round"/><path d="M0 -3.6 L0 -14.4" transform="rotate(216)" stroke="#b49ae6" stroke-width=".8" stroke-linecap="round"/><path d="M0 0 C 5.6 -6.0, 6.0 -14.4, 0 -20 C -6.0 -14.4, -5.6 -6.0, 0 0 Z" transform="rotate(288)" fill="#c9b0f2" stroke="#9d80d6" stroke-width="1.1" stroke-linejoin="round"/><path d="M0 -3.6 L0 -14.4" transform="rotate(288)" stroke="#b49ae6" stroke-width=".8" stroke-linecap="round"/><circle r="6.0" fill="#f3edfd"/><path d="M0 0 L0 -6.8" transform="rotate(20)" stroke="#ffffff" stroke-width="1.2" stroke-linecap="round"/><path d="M0 0 L0 -6.8" transform="rotate(140)" stroke="#ffffff" stroke-width="1.2" stroke-linecap="round"/><path d="M0 0 L0 -6.8" transform="rotate(260)" stroke="#ffffff" stroke-width="1.2" stroke-linecap="round"/><circle r="1.8" fill="#9d80d6"/></g><g transform="translate(550 56) rotate(40) scale(1 1.0)"><path d="M0 0 C 4.8 -5.1, 5.1 -12.2, 0 -17 C -5.1 -12.2, -4.8 -5.1, 0 0 Z" transform="rotate(0)" fill="#c9b0f2" stroke="#9d80d6" stroke-width="1.1" stroke-linejoin="round"/><path d="M0 -3.1 L0 -12.2" transform="rotate(0)" stroke="#b49ae6" stroke-width=".8" stroke-linecap="round"/><path d="M0 0 C 4.8 -5.1, 5.1 -12.2, 0 -17 C -5.1 -12.2, -4.8 -5.1, 0 0 Z" transform="rotate(72)" fill="#c9b0f2" stroke="#9d80d6" stroke-width="1.1" stroke-linejoin="round"/><path d="M0 -3.1 L0 -12.2" transform="rotate(72)" stroke="#b49ae6" stroke-width=".8" stroke-linecap="round"/><path d="M0 0 C 4.8 -5.1, 5.1 -12.2, 0 -17 C -5.1 -12.2, -4.8 -5.1, 0 0 Z" transform="rotate(144)" fill="#c9b0f2" stroke="#9d80d6" stroke-width="1.1" stroke-linejoin="round"/><path d="M0 -3.1 L0 -12.2" transform="rotate(144)" stroke="#b49ae6" stroke-width=".8" stroke-linecap="round"/><path d="M0 0 C 4.8 -5.1, 5.1 -12.2, 0 -17 C -5.1 -12.2, -4.8 -5.1, 0 0 Z" transform="rotate(216)" fill="#c9b0f2" stroke="#9d80d6" stroke-width="1.1" stroke-linejoin="round"/><path d="M0 -3.1 L0 -12.2" transform="rotate(216)" stroke="#b49ae6" stroke-width=".8" stroke-linecap="round"/><path d="M0 0 C 4.8 -5.1, 5.1 -12.2, 0 -17 C -5.1 -12.2, -4.8 -5.1, 0 0 Z" transform="rotate(288)" fill="#c9b0f2" stroke="#9d80d6" stroke-width="1.1" stroke-linejoin="round"/><path d="M0 -3.1 L0 -12.2" transform="rotate(288)" stroke="#b49ae6" stroke-width=".8" stroke-linecap="round"/><circle r="5.1" fill="#f3edfd"/><path d="M0 0 L0 -5.8" transform="rotate(20)" stroke="#ffffff" stroke-width="1.2" stroke-linecap="round"/><path d="M0 0 L0 -5.8" transform="rotate(140)" stroke="#ffffff" stroke-width="1.2" stroke-linecap="round"/><path d="M0 0 L0 -5.8" transform="rotate(260)" stroke="#ffffff" stroke-width="1.2" stroke-linecap="round"/><circle r="1.5" fill="#9d80d6"/></g><g transform="translate(592 124) rotate(70) scale(1 0.85)"><path d="M0 0 C 3.4 -3.6, 3.6 -8.6, 0 -12 C -3.6 -8.6, -3.4 -3.6, 0 0 Z" transform="rotate(0)" fill="#c9b0f2" stroke="#9d80d6" stroke-width="1.1" stroke-linejoin="round"/><path d="M0 -2.2 L0 -8.6" transform="rotate(0)" stroke="#b49ae6" stroke-width=".8" stroke-linecap="round"/><path d="M0 0 C 3.4 -3.6, 3.6 -8.6, 0 -12 C -3.6 -8.6, -3.4 -3.6, 0 0 Z" transform="rotate(72)" fill="#c9b0f2" stroke="#9d80d6" stroke-width="1.1" stroke-linejoin="round"/><path d="M0 -2.2 L0 -8.6" transform="rotate(72)" stroke="#b49ae6" stroke-width=".8" stroke-linecap="round"/><path d="M0 0 C 3.4 -3.6, 3.6 -8.6, 0 -12 C -3.6 -8.6, -3.4 -3.6, 0 0 Z" transform="rotate(144)" fill="#c9b0f2" stroke="#9d80d6" stroke-width="1.1" stroke-linejoin="round"/><path d="M0 -2.2 L0 -8.6" transform="rotate(144)" stroke="#b49ae6" stroke-width=".8" stroke-linecap="round"/><path d="M0 0 C 3.4 -3.6, 3.6 -8.6, 0 -12 C -3.6 -8.6, -3.4 -3.6, 0 0 Z" transform="rotate(216)" fill="#c9b0f2" stroke="#9d80d6" stroke-width="1.1" stroke-linejoin="round"/><path d="M0 -2.2 L0 -8.6" transform="rotate(216)" stroke="#b49ae6" stroke-width=".8" stroke-linecap="round"/><path d="M0 0 C 3.4 -3.6, 3.6 -8.6, 0 -12 C -3.6 -8.6, -3.4 -3.6, 0 0 Z" transform="rotate(288)" fill="#c9b0f2" stroke="#9d80d6" stroke-width="1.1" stroke-linejoin="round"/><path d="M0 -2.2 L0 -8.6" transform="rotate(288)" stroke="#b49ae6" stroke-width=".8" stroke-linecap="round"/><circle r="3.6" fill="#f3edfd"/><path d="M0 0 L0 -4.1" transform="rotate(20)" stroke="#ffffff" stroke-width="1.2" stroke-linecap="round"/><path d="M0 0 L0 -4.1" transform="rotate(140)" stroke="#ffffff" stroke-width="1.2" stroke-linecap="round"/><path d="M0 0 L0 -4.1" transform="rotate(260)" stroke="#ffffff" stroke-width="1.2" stroke-linecap="round"/><circle r="1.1" fill="#9d80d6"/></g></g><use href="#spray" transform="rotate(180 300 300)"/></svg>
